# xmcd
#
# Track frame offsets:
#	150
#	16767
#	34025
#	55405
#	69742
#	87572
#	102392
#	116030
#	135095
#	158460
#	172155
#	187932
#
# Disc length: 2720
#
# Revision: 2
# Processed by: cddbd v1.5.1PL0 Copyright (c) Steve Scherf et al.
# Submitted via: CDex 1.30Release
# Normalized: r1:DSETVAR1,TDELIM( - )
#
DISCID=980a9e0c
DTITLE=Various Artist - Breaking Ground
DYEAR=1990
DGENRE=Country
TTITLE0=Until the next big dry - James Blundell
TTITLE1=Prodigal son - The Kanes
TTITLE2=There's a light on - Keith Urban
TTITLE3=Till you love me again - Anne Kirkpatric
TTITLE4=Loosen my necktie - The Danglin' Bros.
TTITLE5=Up on the mountain - The Breaking Ground Band
TTITLE6=How come - Blue Healers
TTITLE7=Time will tell - The Happening Thang
TTITLE8=It makes no difference - Jenine Vaughan
TTITLE9=Lonesome, lonely and alone - Mary-Jo Starr
TTITLE10=Country man - The Fargon Beauties
TTITLE11=Wait for the light to shine - Featuring All Artists
EXTD=YEAR: 1990 ID3G:   2
EXTT0=
EXTT1=
EXTT2=
EXTT3=
EXTT4=
EXTT5=
EXTT6=
EXTT7=
EXTT8=
EXTT9=
EXTT10=
EXTT11=
PLAYORDER=
